<?xml version="1.0" encoding="utf-8"?>
<svg width="222px" height="202.43848px" viewBox="0 0 222 202.43848" version="1.1" xmlns:xlink="http://www.w3.org/1999/xlink" xmlns="http://www.w3.org/2000/svg">
  <g id="Group">
    <path d="M157.264 145.376L127.083 115.058Q126.927 114.902 126.783 114.734Q126.639 114.566 126.508 114.388Q126.377 114.211 126.259 114.024Q126.141 113.837 126.038 113.642Q125.934 113.447 125.845 113.244Q125.756 113.042 125.682 112.834Q125.608 112.626 125.549 112.413Q125.491 112.2 125.448 111.983Q125.405 111.766 125.379 111.547Q125.352 111.327 125.342 111.107Q125.332 110.886 125.337 110.665Q125.343 110.444 125.365 110.224Q125.388 110.005 125.426 109.787Q125.464 109.569 125.518 109.355Q125.572 109.141 125.642 108.931Q125.712 108.722 125.797 108.518Q125.882 108.314 125.981 108.117Q126.081 107.919 126.195 107.73Q126.309 107.541 126.437 107.36Q126.564 107.18 126.705 107.009Q126.845 106.839 126.998 106.679Q127.151 106.52 127.315 106.371Q127.479 106.223 127.653 106.088Q127.828 105.952 128.012 105.83Q128.195 105.707 128.388 105.599Q128.58 105.49 128.78 105.396Q128.98 105.302 129.186 105.223Q129.393 105.144 129.604 105.08Q129.816 105.016 130.032 104.968Q130.247 104.92 130.466 104.888Q130.684 104.856 130.905 104.841Q131.125 104.825 131.346 104.825L203.455 104.956Q203.691 104.956 203.926 104.975Q204.162 104.994 204.395 105.031Q204.628 105.069 204.857 105.124Q205.086 105.18 205.31 105.253Q205.535 105.327 205.753 105.417Q205.97 105.508 206.18 105.616Q206.39 105.723 206.591 105.847Q206.792 105.971 206.983 106.11Q207.173 106.249 207.352 106.403Q207.531 106.557 207.698 106.724Q207.864 106.891 208.017 107.071Q208.17 107.251 208.308 107.442Q208.446 107.634 208.569 107.835Q208.692 108.037 208.798 108.247Q208.905 108.458 208.994 108.676Q209.084 108.894 209.156 109.119Q209.228 109.344 209.283 109.573Q209.337 109.803 209.373 110.036Q209.41 110.269 209.427 110.505Q209.445 110.74 209.444 110.976Q209.443 111.212 209.424 111.447Q209.405 111.682 209.367 111.915Q209.329 112.148 209.273 112.377Q209.218 112.607 209.144 112.831Q209.07 113.055 208.979 113.273Q208.888 113.49 208.78 113.7Q208.672 113.91 208.548 114.111Q208.424 114.311 208.284 114.502Q208.145 114.692 207.991 114.871Q207.837 115.05 207.669 115.216Q207.502 115.382 207.322 115.535Q207.142 115.687 206.95 115.825L165.022 146.012Q164.807 146.167 164.579 146.302Q164.352 146.437 164.113 146.552Q163.874 146.666 163.626 146.76Q163.378 146.853 163.123 146.924Q162.868 146.995 162.607 147.043Q162.347 147.091 162.083 147.116Q161.82 147.141 161.555 147.143Q161.29 147.144 161.026 147.123Q160.762 147.101 160.501 147.056Q160.24 147.011 159.984 146.944Q159.728 146.876 159.479 146.786Q159.23 146.696 158.989 146.585Q158.749 146.473 158.52 146.341Q158.29 146.209 158.073 146.057Q157.856 145.905 157.654 145.734Q157.451 145.564 157.264 145.376Z" id="Triangle" fill="#FFFFFF" fill-rule="evenodd" stroke="none" />
    <path d="M163.869 59.8799L187.587 82.674Q187.748 82.8284 187.897 82.9943Q188.046 83.1602 188.182 83.3367Q188.318 83.5132 188.44 83.6993Q188.563 83.8854 188.671 84.0801Q188.78 84.2748 188.873 84.477Q188.967 84.6792 189.046 84.8878Q189.124 85.0964 189.187 85.3102Q189.25 85.524 189.296 85.7419Q189.343 85.9598 189.374 86.1806Q189.404 86.4014 189.418 86.6238Q189.432 86.8462 189.429 87.0691Q189.427 87.2919 189.408 87.5139Q189.389 87.736 189.353 87.956Q189.318 88.176 189.266 88.3928Q189.214 88.6096 189.146 88.8219Q189.079 89.0342 188.996 89.241Q188.912 89.4477 188.814 89.6477Q188.716 89.8477 188.603 90.0398Q188.49 90.2319 188.363 90.4152Q188.236 90.5984 188.096 90.7717Q187.956 90.945 187.803 91.1075Q187.651 91.2699 187.487 91.4206Q187.322 91.5713 187.147 91.7094Q186.973 91.8475 186.788 91.9722Q186.603 92.097 186.41 92.2076Q186.216 92.3183 186.015 92.4144Q185.814 92.5104 185.606 92.5912Q185.399 92.6721 185.186 92.7373Q184.973 92.8025 184.755 92.8518Q184.538 92.901 184.317 92.934Q184.097 92.9669 183.875 92.9835Q183.653 93 183.43 93L134.557 93Q134.331 93 134.106 92.983Q133.881 92.9661 133.658 92.9323Q133.435 92.8985 133.215 92.8481Q132.995 92.7976 132.78 92.7308Q132.564 92.664 132.355 92.5812Q132.145 92.4984 131.942 92.4Q131.739 92.3017 131.543 92.1884Q131.348 92.0751 131.162 91.9474Q130.976 91.8198 130.8 91.6786Q130.624 91.5373 130.46 91.3832Q130.295 91.2292 130.142 91.0632Q129.989 90.8972 129.849 90.7201Q129.71 90.5431 129.583 90.3561Q129.457 90.1691 129.345 89.9731Q129.234 89.7772 129.137 89.5734Q129.04 89.3696 128.959 89.1591Q128.878 88.9486 128.812 88.7326Q128.747 88.5166 128.699 88.2963Q128.65 88.076 128.618 87.8527Q128.586 87.6294 128.571 87.4043Q128.555 87.1792 128.557 86.9536Q128.559 86.728 128.577 86.5031Q128.596 86.2783 128.632 86.0555Q128.667 85.8327 128.719 85.6132Q128.772 85.3937 128.84 85.1787Q128.908 84.9637 128.993 84.7545Q129.077 84.5453 129.177 84.343Q129.277 84.1408 129.392 83.9465Q129.507 83.7523 129.636 83.5673Q129.765 83.3822 129.908 83.2074Q130.05 83.0326 130.206 82.869Q130.361 82.7054 130.528 82.5539L155.683 59.7598Q155.787 59.6653 155.896 59.5757Q156.004 59.4862 156.117 59.4018Q156.23 59.3175 156.347 59.2385Q156.463 59.1595 156.583 59.0861Q156.703 59.0127 156.827 58.945Q156.95 58.8773 157.077 58.8154Q157.203 58.7536 157.333 58.6978Q157.462 58.6419 157.594 58.5922Q157.726 58.5425 157.859 58.499Q157.993 58.4556 158.129 58.4184Q158.265 58.3813 158.402 58.3506Q158.54 58.3198 158.679 58.2956Q158.817 58.2713 158.957 58.2536Q159.097 58.2359 159.237 58.2248Q159.377 58.2136 159.518 58.2091Q159.659 58.2046 159.8 58.2066Q159.94 58.2087 160.081 58.2174Q160.222 58.226 160.362 58.2413Q160.502 58.2565 160.641 58.2783Q160.78 58.3001 160.918 58.3284Q161.056 58.3567 161.192 58.3915Q161.329 58.4262 161.463 58.4673Q161.598 58.5084 161.731 58.5558Q161.863 58.6032 161.993 58.6567Q162.124 58.7103 162.251 58.7699Q162.379 58.8295 162.503 58.895Q162.628 58.9605 162.749 59.0318Q162.871 59.1031 162.989 59.18Q163.107 59.2569 163.221 59.3393Q163.335 59.4217 163.445 59.5093Q163.556 59.5969 163.662 59.6896Q163.768 59.7823 163.869 59.8799Z" id="Triangle" fill="#FFFFFF" fill-rule="evenodd" stroke="none" />
    <path d="M58.1318 58.88L34.4144 81.674Q34.2537 81.8284 34.1049 81.9943Q33.9561 82.1602 33.8201 82.3367Q33.684 82.5132 33.5614 82.6993Q33.4388 82.8854 33.3304 83.0801Q33.2219 83.2748 33.1282 83.477Q33.0345 83.6792 32.956 83.8878Q32.8776 84.0964 32.8148 84.3102Q32.7521 84.5241 32.7053 84.742Q32.6586 84.9599 32.6282 85.1806Q32.5977 85.4014 32.5838 85.6238Q32.5698 85.8462 32.5724 86.0691Q32.5749 86.2919 32.594 86.514Q32.6131 86.736 32.6486 86.956Q32.6841 87.176 32.7359 87.3928Q32.7876 87.6096 32.8553 87.8219Q32.9229 88.0342 33.0062 88.241Q33.0894 88.4477 33.1877 88.6477Q33.2861 88.8476 33.399 89.0398Q33.5119 89.2319 33.6387 89.4152Q33.7656 89.5984 33.9057 89.7717Q34.0458 89.945 34.1983 90.1075Q34.3509 90.2699 34.5151 90.4206Q34.6793 90.5713 34.8542 90.7094Q35.0291 90.8475 35.2138 90.9722Q35.3985 91.0969 35.5919 91.2076Q35.7854 91.3183 35.9865 91.4143Q36.1876 91.5104 36.3952 91.5912Q36.6029 91.6721 36.816 91.7373Q37.0291 91.8025 37.2465 91.8517Q37.4638 91.901 37.6842 91.9339Q37.9046 91.9669 38.1269 91.9835Q38.3491 92 38.572 92L87.4434 92Q87.669 92 87.894 91.983Q88.1189 91.9661 88.342 91.9323Q88.5651 91.8985 88.785 91.8481Q89.0049 91.7976 89.2204 91.7308Q89.4359 91.664 89.6457 91.5812Q89.8556 91.4984 90.0586 91.4Q90.2617 91.3017 90.4568 91.1884Q90.6519 91.0751 90.8379 90.9474Q91.0239 90.8198 91.1998 90.6785Q91.3758 90.5373 91.5406 90.3832Q91.7054 90.2292 91.8582 90.0632Q92.011 89.8972 92.1509 89.7201Q92.2907 89.5431 92.4169 89.3561Q92.5431 89.1691 92.6549 88.9731Q92.7667 88.7772 92.8635 88.5734Q92.9603 88.3696 93.0414 88.1591Q93.1226 87.9486 93.1878 87.7326Q93.2529 87.5166 93.3017 87.2963Q93.3504 87.076 93.3825 86.8527Q93.4145 86.6294 93.4297 86.4043Q93.445 86.1792 93.4432 85.9536Q93.4415 85.728 93.4228 85.5031Q93.4041 85.2783 93.3686 85.0555Q93.3331 84.8327 93.2809 84.6132Q93.2288 84.3937 93.1603 84.1787Q93.0918 83.9638 93.0074 83.7545Q92.923 83.5453 92.823 83.3431Q92.7231 83.1408 92.6083 82.9466Q92.4935 82.7523 92.3644 82.5673Q92.2354 82.3823 92.0928 82.2074Q91.9501 82.0326 91.7948 81.869Q91.6395 81.7054 91.4723 81.5539L66.3183 58.76Q66.2139 58.6654 66.1053 58.5759Q65.9966 58.4863 65.8838 58.4019Q65.7711 58.3176 65.6545 58.2386Q65.5379 58.1596 65.4178 58.0862Q65.2976 58.0128 65.1741 57.9451Q65.0507 57.8774 64.9241 57.8155Q64.7976 57.7537 64.6684 57.6979Q64.5391 57.642 64.4073 57.5923Q64.2756 57.5426 64.1417 57.4991Q64.0077 57.4557 63.8719 57.4185Q63.7361 57.3814 63.5986 57.3507Q63.4612 57.3199 63.3225 57.2957Q63.1838 57.2714 63.0441 57.2537Q62.9044 57.236 62.764 57.2249Q62.6236 57.2137 62.4829 57.2092Q62.3422 57.2047 62.2013 57.2067Q62.0606 57.2088 61.92 57.2174Q61.7795 57.2261 61.6395 57.2414Q61.4995 57.2566 61.3604 57.2784Q61.2212 57.3002 61.0833 57.3285Q60.9454 57.3568 60.8089 57.3916Q60.6724 57.4263 60.5378 57.4674Q60.4031 57.5085 60.2705 57.5559Q60.1379 57.6033 60.0076 57.6569Q59.8774 57.7104 59.7498 57.77Q59.6222 57.8296 59.4976 57.8951Q59.3729 57.9607 59.2515 58.0319Q59.1301 58.1032 59.0121 58.1801Q58.8942 58.2571 58.7799 58.3394Q58.6657 58.4218 58.5555 58.5094Q58.4453 58.5971 58.3393 58.6898Q58.2333 58.7825 58.1318 58.88Z" id="Triangle" fill="#FFFFFF" fill-rule="evenodd" stroke="none" />
    <path d="M115.746 123.243L148.98 156.477Q149.084 156.581 149.183 156.69Q149.282 156.799 149.376 156.913Q149.469 157.027 149.557 157.145Q149.644 157.263 149.726 157.386Q149.808 157.508 149.884 157.635Q149.96 157.761 150.029 157.891Q150.098 158.021 150.161 158.154Q150.224 158.287 150.281 158.423Q150.337 158.559 150.387 158.698Q150.436 158.837 150.479 158.978Q150.522 159.119 150.558 159.261Q150.593 159.404 150.622 159.549Q150.651 159.693 150.673 159.839Q150.694 159.985 150.709 160.131Q150.723 160.278 150.73 160.425Q150.738 160.572 150.738 160.719Q150.738 160.867 150.73 161.014Q150.723 161.161 150.709 161.307Q150.694 161.454 150.673 161.6Q150.651 161.745 150.622 161.89Q150.593 162.034 150.558 162.177Q150.522 162.32 150.479 162.461Q150.436 162.602 150.387 162.741Q150.337 162.879 150.281 163.015Q150.224 163.152 150.161 163.285Q150.098 163.418 150.029 163.548Q149.96 163.678 149.884 163.804Q149.808 163.93 149.726 164.053Q149.644 164.175 149.557 164.294Q149.469 164.412 149.376 164.526Q149.282 164.64 149.183 164.749Q149.084 164.858 148.98 164.962L115.746 198.196Q115.642 198.3 115.533 198.399Q115.424 198.498 115.31 198.591Q115.196 198.685 115.078 198.773Q114.959 198.86 114.837 198.942Q114.714 199.024 114.588 199.1Q114.462 199.175 114.332 199.245Q114.202 199.314 114.069 199.377Q113.936 199.44 113.8 199.497Q113.663 199.553 113.525 199.603Q113.386 199.652 113.245 199.695Q113.104 199.738 112.961 199.774Q112.818 199.809 112.674 199.838Q112.53 199.867 112.384 199.888Q112.238 199.91 112.092 199.924Q111.945 199.939 111.798 199.946Q111.651 199.953 111.503 199.953Q111.356 199.953 111.209 199.946Q111.062 199.939 110.915 199.925Q110.769 199.91 110.623 199.888Q110.477 199.867 110.333 199.838Q110.188 199.809 110.046 199.774Q109.903 199.738 109.762 199.695Q109.621 199.652 109.482 199.603Q109.343 199.553 109.207 199.497Q109.071 199.44 108.938 199.377Q108.805 199.314 108.675 199.245Q108.545 199.175 108.419 199.1Q108.292 199.024 108.17 198.942Q108.048 198.86 107.929 198.773Q107.811 198.685 107.697 198.591Q107.583 198.498 107.474 198.399Q107.365 198.3 107.261 198.196L74.0267 164.962Q73.9226 164.858 73.8237 164.749Q73.7248 164.64 73.6313 164.526Q73.5379 164.412 73.4501 164.294Q73.3624 164.175 73.2806 164.053Q73.1987 163.93 73.123 163.804Q73.0473 163.678 72.9779 163.548Q72.9084 163.418 72.8454 163.285Q72.7825 163.152 72.7261 163.015Q72.6697 162.879 72.6201 162.741Q72.5705 162.602 72.5277 162.461Q72.485 162.32 72.4492 162.177Q72.4134 162.034 72.3847 161.89Q72.3559 161.745 72.3343 161.6Q72.3127 161.454 72.2983 161.307Q72.2838 161.161 72.2766 161.014Q72.2694 160.867 72.2694 160.719Q72.2694 160.572 72.2766 160.425Q72.2838 160.278 72.2983 160.131Q72.3127 159.985 72.3343 159.839Q72.3559 159.693 72.3847 159.549Q72.4134 159.404 72.4492 159.261Q72.485 159.119 72.5277 158.978Q72.5705 158.837 72.6201 158.698Q72.6697 158.559 72.7261 158.423Q72.7825 158.287 72.8454 158.154Q72.9084 158.021 72.9779 157.891Q73.0473 157.761 73.123 157.635Q73.1987 157.508 73.2806 157.386Q73.3624 157.263 73.4501 157.145Q73.5379 157.027 73.6313 156.913Q73.7248 156.799 73.8237 156.69Q73.9226 156.581 74.0267 156.477L107.261 123.243Q107.365 123.138 107.474 123.04Q107.583 122.941 107.697 122.847Q107.811 122.754 107.929 122.666Q108.048 122.578 108.17 122.496Q108.292 122.415 108.419 122.339Q108.545 122.263 108.675 122.194Q108.805 122.124 108.938 122.061Q109.071 121.998 109.207 121.942Q109.343 121.886 109.482 121.836Q109.621 121.786 109.762 121.744Q109.903 121.701 110.046 121.665Q110.188 121.629 110.333 121.601Q110.477 121.572 110.623 121.55Q110.769 121.529 110.915 121.514Q111.062 121.5 111.209 121.493Q111.356 121.485 111.503 121.485Q111.651 121.485 111.798 121.493Q111.945 121.5 112.092 121.514Q112.238 121.529 112.384 121.55Q112.529 121.572 112.674 121.601Q112.818 121.629 112.961 121.665Q113.104 121.701 113.245 121.744Q113.386 121.786 113.525 121.836Q113.663 121.886 113.799 121.942Q113.936 121.998 114.069 122.061Q114.202 122.124 114.332 122.194Q114.462 122.263 114.588 122.339Q114.714 122.415 114.837 122.496Q114.959 122.578 115.078 122.666Q115.196 122.754 115.31 122.847Q115.424 122.941 115.533 123.04Q115.642 123.138 115.746 123.243Z" id="Rectangle" fill="#FFFFFF" fill-rule="evenodd" stroke="none" />
    <path d="M64.7279 145.4L94.8606 115.269Q95.017 115.113 95.1614 114.945Q95.3059 114.778 95.4376 114.6Q95.5694 114.422 95.6876 114.235Q95.8059 114.049 95.9102 113.853Q96.0144 113.658 96.104 113.456Q96.1935 113.254 96.268 113.046Q96.3424 112.837 96.4013 112.624Q96.4602 112.411 96.5033 112.194Q96.5463 111.977 96.5733 111.758Q96.6003 111.538 96.611 111.317Q96.6217 111.096 96.6162 110.875Q96.6106 110.654 96.5888 110.434Q96.567 110.214 96.529 109.996Q96.491 109.778 96.4371 109.564Q96.3832 109.349 96.3137 109.139Q96.2441 108.929 96.1593 108.725Q96.0745 108.521 95.9749 108.323Q95.8752 108.126 95.7613 107.936Q95.6474 107.747 95.5199 107.566Q95.3923 107.385 95.2519 107.215Q95.1114 107.044 94.9587 106.884Q94.806 106.724 94.6419 106.576Q94.4779 106.427 94.3033 106.291Q94.1288 106.155 93.9448 106.033Q93.7607 105.91 93.5681 105.801Q93.3755 105.693 93.1755 105.598Q92.9754 105.504 92.7689 105.425Q92.5624 105.346 92.3507 105.282Q92.139 105.218 91.9231 105.17Q91.7072 105.122 91.4884 105.09Q91.2696 105.058 91.049 105.042Q90.8284 105.026 90.6072 105.026L18.6138 105.156Q18.3776 105.156 18.1422 105.175Q17.9068 105.194 17.6736 105.232Q17.4404 105.269 17.2109 105.325Q16.9814 105.381 16.7569 105.454Q16.5325 105.528 16.3145 105.619Q16.0965 105.709 15.8864 105.817Q15.6762 105.925 15.4752 106.049Q15.2742 106.173 15.0835 106.312Q14.8929 106.452 14.7137 106.606Q14.5346 106.76 14.3682 106.927Q14.2017 107.095 14.0489 107.275Q13.8962 107.455 13.758 107.647Q13.6199 107.838 13.4972 108.04Q13.3746 108.242 13.2682 108.453Q13.1617 108.663 13.0722 108.882Q12.9827 109.101 12.9107 109.326Q12.8386 109.55 12.7845 109.78Q12.7303 110.01 12.6944 110.244Q12.6585 110.477 12.641 110.713Q12.6236 110.948 12.6247 111.184Q12.6258 111.42 12.6455 111.656Q12.6652 111.891 12.7033 112.124Q12.7414 112.357 12.7977 112.587Q12.854 112.816 12.9282 113.04Q13.0024 113.265 13.094 113.482Q13.1855 113.7 13.2939 113.91Q13.4023 114.12 13.5269 114.32Q13.6514 114.521 13.7914 114.711Q13.9313 114.901 14.0858 115.08Q14.2403 115.259 14.4083 115.425Q14.5763 115.591 14.7569 115.743Q14.9374 115.895 15.1294 116.033L56.9901 146.034Q57.2047 146.188 57.432 146.323Q57.6593 146.457 57.8975 146.571Q58.1357 146.685 58.383 146.777Q58.6302 146.87 58.8847 146.94Q59.1391 147.011 59.3988 147.058Q59.6585 147.106 59.9213 147.131Q60.1842 147.156 60.4482 147.157Q60.7122 147.159 60.9754 147.137Q61.2385 147.116 61.4987 147.071Q61.759 147.027 62.0143 146.959Q62.2696 146.892 62.518 146.803Q62.7664 146.713 63.006 146.602Q63.2456 146.491 63.4745 146.36Q63.7034 146.228 63.9199 146.077Q64.1364 145.926 64.3388 145.757Q64.5412 145.587 64.7279 145.4Z" id="Triangle" fill="#FFFFFF" fill-rule="evenodd" stroke="none" />
    <path d="M115.243 4.24264L148.477 37.4767Q148.581 37.5808 148.68 37.69Q148.779 37.7991 148.873 37.913Q148.966 38.0268 149.054 38.1451Q149.142 38.2634 149.223 38.3859Q149.305 38.5084 149.381 38.6347Q149.457 38.7611 149.526 38.891Q149.596 39.0209 149.659 39.154Q149.722 39.2872 149.778 39.4232Q149.834 39.5593 149.884 39.698Q149.934 39.8367 149.976 39.9776Q150.019 40.1186 150.055 40.2614Q150.091 40.4043 150.119 40.5488Q150.148 40.6933 150.17 40.839Q150.191 40.9846 150.206 41.1312Q150.22 41.2778 150.227 41.4249Q150.235 41.572 150.235 41.7193Q150.235 41.8666 150.227 42.0137Q150.22 42.1609 150.206 42.3074Q150.191 42.454 150.17 42.5997Q150.148 42.7454 150.119 42.8899Q150.091 43.0343 150.055 43.1772Q150.019 43.3201 149.976 43.461Q149.934 43.602 149.884 43.7407Q149.834 43.8794 149.778 44.0154Q149.722 44.1515 149.659 44.2847Q149.596 44.4178 149.526 44.5477Q149.457 44.6776 149.381 44.804Q149.305 44.9303 149.223 45.0528Q149.142 45.1752 149.054 45.2935Q148.966 45.4118 148.873 45.5257Q148.779 45.6396 148.68 45.7487Q148.581 45.8578 148.477 45.962L115.243 79.196Q115.139 79.3002 115.03 79.3991Q114.921 79.498 114.807 79.5915Q114.693 79.6849 114.575 79.7727Q114.456 79.8604 114.334 79.9422Q114.212 80.0241 114.085 80.0998Q113.959 80.1755 113.829 80.2449Q113.699 80.3144 113.566 80.3773Q113.433 80.4403 113.297 80.4967Q113.161 80.553 113.022 80.6027Q112.883 80.6523 112.742 80.695Q112.601 80.7378 112.458 80.7736Q112.316 80.8094 112.171 80.8381Q112.027 80.8668 111.881 80.8885Q111.735 80.9101 111.589 80.9245Q111.442 80.9389 111.295 80.9462Q111.148 80.9534 111.001 80.9534Q110.853 80.9534 110.706 80.9462Q110.559 80.9389 110.412 80.9245Q110.266 80.9101 110.12 80.8885Q109.974 80.8668 109.83 80.8381Q109.686 80.8094 109.543 80.7736Q109.4 80.7378 109.259 80.695Q109.118 80.6523 108.979 80.6027Q108.841 80.553 108.704 80.4967Q108.568 80.4403 108.435 80.3773Q108.302 80.3143 108.172 80.2449Q108.042 80.1755 107.916 80.0998Q107.79 80.024 107.667 79.9422Q107.545 79.8604 107.426 79.7726Q107.308 79.6849 107.194 79.5915Q107.08 79.498 106.971 79.3991Q106.862 79.3002 106.758 79.196L73.5239 45.962Q73.4197 45.8578 73.3208 45.7487Q73.2219 45.6396 73.1285 45.5257Q73.035 45.4118 72.9473 45.2935Q72.8595 45.1752 72.7777 45.0528Q72.6959 44.9303 72.6202 44.804Q72.5444 44.6776 72.475 44.5477Q72.4056 44.4178 72.3426 44.2847Q72.2796 44.1515 72.2233 44.0154Q72.1669 43.8794 72.1173 43.7407Q72.0676 43.602 72.0249 43.4611Q71.9821 43.3201 71.9463 43.1772Q71.9105 43.0343 71.8818 42.8899Q71.8531 42.7454 71.8315 42.5997Q71.8099 42.454 71.7954 42.3074Q71.781 42.1609 71.7738 42.0137Q71.7665 41.8666 71.7665 41.7193Q71.7665 41.572 71.7738 41.4249Q71.781 41.2778 71.7954 41.1312Q71.8098 40.9847 71.8315 40.839Q71.8531 40.6933 71.8818 40.5488Q71.9105 40.4043 71.9463 40.2615Q71.9821 40.1186 72.0249 39.9776Q72.0676 39.8367 72.1173 39.698Q72.1669 39.5593 72.2233 39.4232Q72.2796 39.2872 72.3426 39.154Q72.4056 39.0209 72.475 38.891Q72.5444 38.7611 72.6202 38.6347Q72.6959 38.5084 72.7777 38.3859Q72.8595 38.2634 72.9473 38.1451Q73.035 38.0268 73.1285 37.913Q73.2219 37.7991 73.3208 37.69Q73.4197 37.5809 73.5239 37.4767L106.758 4.24264Q106.862 4.13849 106.971 4.03958Q107.08 3.94066 107.194 3.84722Q107.308 3.75378 107.426 3.66604Q107.545 3.5783 107.667 3.49647Q107.79 3.41463 107.916 3.33891Q108.042 3.26319 108.172 3.19376Q108.302 3.12432 108.435 3.06135Q108.568 2.99837 108.704 2.94201Q108.841 2.88564 108.979 2.83602Q109.118 2.7864 109.259 2.74364Q109.4 2.70088 109.543 2.6651Q109.686 2.62931 109.83 2.60057Q109.974 2.57184 110.12 2.55022Q110.266 2.52861 110.412 2.51417Q110.559 2.49974 110.706 2.49251Q110.853 2.48528 111.001 2.48528Q111.148 2.48528 111.295 2.49251Q111.442 2.49974 111.589 2.51417Q111.735 2.52861 111.881 2.55022Q112.027 2.57184 112.171 2.60057Q112.316 2.62931 112.458 2.66509Q112.601 2.70088 112.742 2.74364Q112.883 2.7864 113.022 2.83602Q113.161 2.88564 113.297 2.942Q113.433 2.99837 113.566 3.06135Q113.699 3.12432 113.829 3.19375Q113.959 3.26319 114.085 3.33891Q114.212 3.41463 114.334 3.49646Q114.456 3.5783 114.575 3.66604Q114.693 3.75378 114.807 3.84722Q114.921 3.94066 115.03 4.03958Q115.139 4.13849 115.243 4.24264Z" id="Rectangle" fill="#FFFFFF" fill-rule="evenodd" stroke="none" />
  </g>
</svg>